<!-- Generator: Adobe Illustrator 24.1.0, SVG Export Plug-In  -->
<svg version="1.1" xmlns="http://www.w3.org/2000/svg" xmlns:xlink="http://www.w3.org/1999/xlink" x="0px" y="0px"
	 width="721.01px" height="11px" viewBox="0 0 721.01 11" style="enable-background:new 0 0 721.01 11;" xml:space="preserve">
<style type="text/css">
	.st0{fill:none;stroke:#FFFFFF;stroke-linecap:square;stroke-miterlimit:10;}
</style>
<defs>
</defs>
<line class="st0" x1="600.5" y1="10.5" x2="600.5" y2="0.5"/>
<line class="st0" x1="590.5" y1="10.5" x2="590.5" y2="6.5"/>
<line class="st0" x1="660.51" y1="10.5" x2="660.51" y2="0.5"/>
<line class="st0" x1="720.51" y1="10.5" x2="720.51" y2="0.5"/>
<line class="st0" x1="650.51" y1="10.5" x2="650.51" y2="6.5"/>
<line class="st0" x1="640.5" y1="10.5" x2="640.5" y2="6.5"/>
<line class="st0" x1="630.5" y1="10.5" x2="630.5" y2="6.5"/>
<line class="st0" x1="620.5" y1="10.5" x2="620.5" y2="6.5"/>
<line class="st0" x1="610.5" y1="10.5" x2="610.5" y2="6.5"/>
<line class="st0" x1="710.51" y1="10.5" x2="710.51" y2="6.5"/>
<line class="st0" x1="700.51" y1="10.5" x2="700.51" y2="6.5"/>
<line class="st0" x1="690.51" y1="10.5" x2="690.51" y2="6.5"/>
<line class="st0" x1="680.51" y1="10.5" x2="680.51" y2="6.5"/>
<line class="st0" x1="670.51" y1="10.5" x2="670.51" y2="6.5"/>
<line class="st0" x1="0.5" y1="10.5" x2="0.5" y2="0.5"/>
<line class="st0" x1="60.5" y1="10.5" x2="60.5" y2="0.5"/>
<line class="st0" x1="120.5" y1="10.5" x2="120.5" y2="0.5"/>
<line class="st0" x1="10.5" y1="10.5" x2="10.5" y2="6.5"/>
<line class="st0" x1="20.5" y1="10.5" x2="20.5" y2="6.5"/>
<line class="st0" x1="30.5" y1="10.5" x2="30.5" y2="6.5"/>
<line class="st0" x1="40.5" y1="10.5" x2="40.5" y2="6.5"/>
<line class="st0" x1="50.5" y1="10.5" x2="50.5" y2="6.5"/>
<line class="st0" x1="110.5" y1="10.5" x2="110.5" y2="6.5"/>
<line class="st0" x1="100.5" y1="10.5" x2="100.5" y2="6.5"/>
<line class="st0" x1="90.5" y1="10.5" x2="90.5" y2="6.5"/>
<line class="st0" x1="80.5" y1="10.5" x2="80.5" y2="6.5"/>
<line class="st0" x1="70.5" y1="10.5" x2="70.5" y2="6.5"/>
<line class="st0" x1="180.5" y1="10.5" x2="180.5" y2="0.5"/>
<line class="st0" x1="240.5" y1="10.5" x2="240.5" y2="0.5"/>
<line class="st0" x1="170.5" y1="10.5" x2="170.5" y2="6.5"/>
<line class="st0" x1="160.5" y1="10.5" x2="160.5" y2="6.5"/>
<line class="st0" x1="150.5" y1="10.5" x2="150.5" y2="6.5"/>
<line class="st0" x1="140.5" y1="10.5" x2="140.5" y2="6.5"/>
<line class="st0" x1="130.5" y1="10.5" x2="130.5" y2="6.5"/>
<line class="st0" x1="280.5" y1="10.5" x2="280.5" y2="6.5"/>
<line class="st0" x1="270.5" y1="10.5" x2="270.5" y2="6.5"/>
<line class="st0" x1="260.5" y1="10.5" x2="260.5" y2="6.5"/>
<line class="st0" x1="250.5" y1="10.5" x2="250.5" y2="6.5"/>
<line class="st0" x1="290.5" y1="10.5" x2="290.5" y2="6.5"/>
<line class="st0" x1="300.5" y1="10.5" x2="300.5" y2="0.5"/>
<line class="st0" x1="360.5" y1="10.5" x2="360.5" y2="0.5"/>
<line class="st0" x1="230.5" y1="10.5" x2="230.5" y2="6.5"/>
<line class="st0" x1="220.5" y1="10.5" x2="220.5" y2="6.5"/>
<line class="st0" x1="210.5" y1="10.5" x2="210.5" y2="6.5"/>
<line class="st0" x1="200.5" y1="10.5" x2="200.5" y2="6.5"/>
<line class="st0" x1="190.5" y1="10.5" x2="190.5" y2="6.5"/>
<line class="st0" x1="350.5" y1="10.5" x2="350.5" y2="6.5"/>
<line class="st0" x1="340.5" y1="10.5" x2="340.5" y2="6.5"/>
<line class="st0" x1="330.5" y1="10.5" x2="330.5" y2="6.5"/>
<line class="st0" x1="320.5" y1="10.5" x2="320.5" y2="6.5"/>
<line class="st0" x1="310.5" y1="10.5" x2="310.5" y2="6.5"/>
<line class="st0" x1="420.5" y1="10.5" x2="420.5" y2="0.5"/>
<line class="st0" x1="480.5" y1="10.5" x2="480.5" y2="0.5"/>
<line class="st0" x1="410.5" y1="10.5" x2="410.5" y2="6.5"/>
<line class="st0" x1="400.5" y1="10.5" x2="400.5" y2="6.5"/>
<line class="st0" x1="390.5" y1="10.5" x2="390.5" y2="6.5"/>
<line class="st0" x1="380.5" y1="10.5" x2="380.5" y2="6.5"/>
<line class="st0" x1="370.5" y1="10.5" x2="370.5" y2="6.5"/>
<line class="st0" x1="470.5" y1="10.5" x2="470.5" y2="6.5"/>
<line class="st0" x1="460.5" y1="10.5" x2="460.5" y2="6.5"/>
<line class="st0" x1="450.5" y1="10.5" x2="450.5" y2="6.5"/>
<line class="st0" x1="440.5" y1="10.5" x2="440.5" y2="6.5"/>
<line class="st0" x1="430.5" y1="10.5" x2="430.5" y2="6.5"/>
<line class="st0" x1="540.5" y1="10.5" x2="540.5" y2="0.5"/>
<line class="st0" x1="530.5" y1="10.5" x2="530.5" y2="6.5"/>
<line class="st0" x1="520.5" y1="10.5" x2="520.5" y2="6.5"/>
<line class="st0" x1="510.5" y1="10.5" x2="510.5" y2="6.5"/>
<line class="st0" x1="500.5" y1="10.5" x2="500.5" y2="6.5"/>
<line class="st0" x1="490.5" y1="10.5" x2="490.5" y2="6.5"/>
<line class="st0" x1="580.5" y1="10.5" x2="580.5" y2="6.5"/>
<line class="st0" x1="570.5" y1="10.5" x2="570.5" y2="6.5"/>
<line class="st0" x1="560.5" y1="10.5" x2="560.5" y2="6.5"/>
<line class="st0" x1="550.5" y1="10.5" x2="550.5" y2="6.5"/>
<line class="st0" x1="0.5" y1="10.5" x2="720.51" y2="10.5"/>
</svg>
